<svg xmlns="http://www.w3.org/2000/svg" viewBox="0 0 347.465 475.946" height="634.595" width="463.287" xmlns:v="https://vecta.io/nano"><path d="M294.504 168.985l-.754.008c-25.586 0-54.656 14.508-73.578 55.508-10.117 22.727-15.754 48.809-15.793 75.293h-8.102c0-54.859 13.848-102.258 33.922-124.641 5.582-6.531 14.633-9.508 23.773-8.531a29.16 29.16 0 0 1 5.5 1.129c-2.18-4.727-6.719-8.219-12.266-8.812-2.5-.266-4.922.09-7.117.938l7.105-9.211v.004c2.641-3.008 3.738-3.707 5.941-4.633l-.012.004c2.359-.84 4.891-1.098 7.363-.754 2.484.359 4.086 1.262 7.187 2.316 4.125 1.406 7.68 1.699 11.941 1.34a23.81 23.81 0 0 0 15.07-6.684c-4.309 1.258-8.918 1.309-13.281.09-4.512-1.367-7.297-3.648-12.934-5.723-2.902-1.078-6.039-1.266-9.02-.625l10.031-11.016h.004c1.957-2.121 4.672-4.137 5.621-4.797 2.773-1.844 5.27-2.977 7.34-3.664l-.004-.008c2-.629 4.074-.965 6.152-.988l-.019-.039c-1.852-2.988-1.633-6.945.797-9.734a8.22 8.22 0 0 1 11.594-.789 8.21 8.21 0 0 1 1.121 11.176c3.434.555 7.066-.504 9.688-3.18a11.11 11.11 0 0 0-.168-15.715c-.895-.879-1.965-1.633-3.035-2.145 0 0-1.023-.437-2.531-.789-2.141-.496-3.289-.824-3.289-.824a.55.55 0 0 1-.156-.098.56.56 0 0 1-.055-.789.54.54 0 0 1 .406-.187c2.492-.062 3.035-.164 3.035-.164s1.398 0 3.07-.43l-.004-.004c2.023-.504 3.707-1.668 4.883-3.207.699-.977 1.219-2.047 1.563-3.266.609-2.105.695-4.648.301-7.91-.68-5.719-.504-9.645-.504-9.645s-3.875.695-9.629.773c-3.281.047-5.793.469-7.797 1.344-1.164.508-2.16 1.168-3.031 1.984-1.371 1.367-2.301 3.191-2.531 5.266h-.004c-.211 1.711-.023 3.098-.023 3.098s-.031.551.238 3.027c.019.152-.023.309-.133.43a.56.56 0 0 1-.789.051c-.043-.043-.082-.09-.113-.141 0 0-.48-1.102-1.254-3.152-.543-1.449-1.117-2.402-1.117-2.402a11.69 11.69 0 0 0-2.531-2.73c-4.836-3.781-11.816-2.918-15.598 1.918a11.07 11.07 0 0 0-1.867 10.027c3.035-3.043 7.949-3.25 11.223-.371a8.22 8.22 0 0 1 .758 11.598c-2.441 2.777-6.336 3.516-9.539 2.078l-.047-.016c.254 2.063.195 4.168-.164 6.23l-.012-.004c-.441 2.344-1.344 5.258-3.082 8.598-.762 1.375-1.816 2.695-2.547 3.543l-11.289 12.379c.082-2.918-.613-5.844-2.078-8.43-2.746-4.871-5.473-7.262-7.715-11.848-1.898-4.113-2.586-8.676-2.031-13.129a23.8 23.8 0 0 0-4.195 15.941c.332 4.262 1.184 7.727 3.23 11.578 1.539 2.895 2.688 4.328 3.441 6.727.73 2.379.875 4.91.43 7.367-.504 2.367-2.105 4.777-2.934 5.906l-8.895 11.52a15.23 15.23 0 0 0-1.59-8.902c-2.563-4.957-7.465-7.918-12.66-8.242a28.78 28.78 0 0 1 3.047 4.719c2.25 4.344 3.445 9.059 3.465 13.656l-.008-.008c-.027 6.859-8.566 18.875-10.992 22.836-16.164 26.305-26.723 69.703-26.723 118.785h-8.031v-29.93c0-60.625 15.008-115.563 41.512-165.66 4.035-7.629 6.426-17.734 6.426-26.965l.004-.004.004-.871a54.05 54.05 0 0 0-11.102-32.902c-3.203-4.203-7.008-7.918-11.281-11.028-5.203-3.914-16.699-10.07-20.898-12.496A23.4 23.4 0 0 1 173.723 0a23.4 23.4 0 0 1-11.121 19.938c-4.195 2.426-15.691 8.582-20.895 12.496-4.277 3.109-8.078 6.824-11.285 11.027-6.961 9.129-11.102 20.531-11.102 32.902l.008.871v.004c0 9.23 2.398 19.336 6.43 26.965 26.504 50.098 41.512 105.035 41.512 165.66v29.93h-8.031c0-49.082-10.559-92.48-26.719-118.785-2.43-3.961-10.969-15.977-10.996-22.836l-.008.008c.019-4.598 1.219-9.312 3.465-13.656a28.78 28.78 0 0 1 3.047-4.719c-5.195.324-10.094 3.285-12.656 8.242-1.473 2.848-1.961 5.945-1.594 8.902l-8.895-11.52c-.824-1.129-2.43-3.539-2.93-5.906-.449-2.457-.301-4.988.426-7.367.758-2.398 1.902-3.832 3.441-6.727 2.047-3.852 2.902-7.316 3.234-11.578.52-5.496-.852-11.164-4.199-15.941.555 4.453-.133 9.016-2.031 13.129-2.242 4.586-4.969 6.977-7.711 11.848-1.469 2.586-2.164 5.512-2.082 8.43l-11.289-12.379c-.727-.848-1.781-2.168-2.547-3.543-1.738-3.34-2.641-6.254-3.086-8.598l-.004.004c-.363-2.062-.418-4.168-.168-6.23l-.043.016a8.23 8.23 0 0 1-9.543-2.078 8.22 8.22 0 0 1 .758-11.598 8.21 8.21 0 0 1 11.227.371c1-3.332.43-7.074-1.871-10.027-3.781-4.836-10.762-5.699-15.598-1.918a11.51 11.51 0 0 0-2.527 2.73s-.57.953-1.117 2.402c-.777 2.051-1.258 3.152-1.258 3.152-.031.051-.07.098-.113.141a.56.56 0 0 1-.789-.051c-.109-.121-.152-.277-.133-.43.27-2.477.238-3.027.238-3.027s.188-1.387-.02-3.098h-.004c-.23-2.074-1.16-3.898-2.531-5.266-.875-.817-1.867-1.477-3.035-1.984-2.004-.875-4.516-1.297-7.797-1.344-5.754-.078-9.629-.773-9.629-.773s.176 3.926-.504 9.645c-.395 3.262-.305 5.805.301 7.91.344 1.219.863 2.289 1.566 3.266 1.172 1.539 2.855 2.703 4.879 3.207l-.004.004c1.672.43 3.07.43 3.07.43s.543.102 3.035.164c.148 0 .301.066.406.188a.56.56 0 0 1-.055.789.55.55 0 0 1-.156.098s-1.156.328-3.289.824c-1.508.352-2.527.789-2.527.789a11.5 11.5 0 0 0-3.039 2.145 11.11 11.11 0 0 0-.168 15.715c2.621 2.676 6.254 3.734 9.688 3.18-2.609-3.414-2.164-8.309 1.121-11.176a8.22 8.22 0 0 1 12.391 10.523l-.02.039a21.28 21.28 0 0 1 6.152.988l-.004.008c2.07.688 4.57 1.82 7.34 3.664.953.66 3.664 2.676 5.625 4.797L87.993 136c-2.977-.641-6.113-.453-9.02.625-5.633 2.074-8.418 4.355-12.934 5.723-4.359 1.219-8.973 1.168-13.281-.09a23.81 23.81 0 0 0 15.066 6.684c4.266.359 7.82.066 11.949-1.34 3.094-1.055 4.699-1.957 7.184-2.316 2.477-.344 5.008-.086 7.363.754l-.012-.004c2.211.926 3.301 1.625 5.941 4.633v-.004l7.109 9.211a15.25 15.25 0 0 0-7.121-.937c-5.547.594-10.086 4.086-12.266 8.813 1.762-.543 3.598-.926 5.504-1.129 9.137-.977 18.187 2 23.77 8.531 20.074 22.383 33.922 69.781 33.926 124.641h-8.09c-.039-26.484-5.672-52.566-15.797-75.293-18.918-41-47.988-55.508-73.574-55.508-.066 0-.684-.008-.758-.008C23.707 168.985 0 192.695 0 221.945c0 21.422 12.715 39.871 31.012 48.215 5.25 2.391 10.648 4.566 16.461 5.867 13.141 2.941 21.379 5.023 29.074 9.746 4.609 2.684 7.707 7.68 7.707 13.398a15.44 15.44 0 0 1-4.625 11.043l.019-.004-4.246 3.93-2.008 1.711c-2.816 2.297-7.434 4.645-11.387 5.105-.418.055-.848-.102-1.133-.453a1.25 1.25 0 0 1-.266-.984l.004.019a11.36 11.36 0 0 0 .125-2.687c-.453-6.137-5.793-10.742-11.93-10.293a14.82 14.82 0 0 0-.715.078c-.016.004-.031.008-.047.008a9.28 9.28 0 0 0-.574.098c-.027.004-.059.012-.086.016l-.57.137c-.016 0-.031.004-.047.012-5.082 1.34-8.652 6.148-8.25 11.586a11.09 11.09 0 0 0 1.461 4.762c.02.027.039.055.055.086.074.125.152.246.23.371l.207.309a1.45 1.45 0 0 0 .09.125c.016.023.027.047.047.07.027.039.066.078.094.121.109.145.227.293.34.434.66.801 1.414 1.52 2.207 2.078 0 0 .285.195.793.461a11.54 11.54 0 0 0 1.645.785c1.984.836 3.047 1.344 3.047 1.344a.8.8 0 0 1 .137.121c.195.242.156.594-.082.789a.57.57 0 0 1-.434.121c-2.477-.363-3.035-.355-3.035-.355s-1.379-.238-3.102-.094v.004a8.81 8.81 0 0 0-5.375 2.34 10.45 10.45 0 0 0-2.105 2.969c-.953 1.977-1.477 4.484-1.645 7.773-.289 5.773-1.133 9.633-1.133 9.633s3.949-.043 9.66.84c3.258.504 5.816.496 7.949-.031a10.54 10.54 0 0 0 3.332-1.461c1.582-1.125 2.805-2.777 3.383-4.789h.004c.488-1.66.535-3.059.535-3.059s.121-.543.266-3.043a.56.56 0 0 1 .207-.398c.238-.195.594-.16.789.078.039.051.07.105.09.16a76.45 76.45 0 0 0 .703 3.254 10.92 10.92 0 0 0 .43 1.77c.164.547.289.871.289.871.391.891.941 1.777 1.59 2.578.117.145.234.289.355.426.035.039.063.082.102.117.02.019.039.039.059.063.035.031.07.074.105.109a16.89 16.89 0 0 0 .262.266c.102.102.211.199.316.301.023.019.051.047.074.066a11.08 11.08 0 0 0 4.363 2.402c5.242 1.496 10.672-1.027 13.02-5.734.008-.012.016-.027.023-.043l.246-.531c.012-.027.023-.051.031-.078a13.28 13.28 0 0 0 .215-.547.18.18 0 0 0 .016-.043c.078-.227.156-.449.219-.684 1.688-5.918-1.738-12.082-7.656-13.766-.887-.254-1.781-.395-2.664-.422l.019.004a1.26 1.26 0 0 1-.91-.457c-.281-.352-.348-.805-.211-1.199 1.254-3.785 4.238-7.277 6.926-9.727 1.688-1.547 6.738-5.746 10.715-11.109l.016-.004c.953-1.227 1.797-2.535 2.535-3.914 1.043-1.879 1.867-3.84 2.328-5.836.004-.012.008-.023.008-.035.512-1.891.824-3.859.922-5.883h-.004c.086-7.051-1.43-11.277-4.152-16.238-2.937-5.348-7.699-11.867-7.699-19.027 0-8.648 7.008-15.656 15.656-15.656 1.035 0 2.508.07 3.488.227 10.645 1.68 17.496 8.047 22.812 16.039l.012.012c7.695 11.867 12.199 26.039 12.297 41.207-6.512.23-12.477 3.781-15.754 9.453-3.383 5.863-3.383 13.09 0 18.953s9.645 9.473 16.418 9.473h20.234c-.031 1.09-.238 2.129-.605 3.063-6.137 15.684-30.602 22.617-64.707 37.055-18.148 7.684-22.836 19.711-23.195 29.402l.004.016c-.012.258-.012.512-.012.773 0 4.352.992 8.367 2.801 12.02a24.5 24.5 0 0 1 22.656-24.223c3.687-.273 7.617-.27 11.672-.27 1.379 0 2.445.047 3.672-.086 16.23-1.652 22.25-12.008 28.332-18.082s13.141-8.602 13.801-8.883c.836-.355 1.785-.477 2.746-.477 4.367 0 7.906 3.539 7.906 7.906a7.91 7.91 0 0 1-.152 1.562c-.066.328-.199.629-.332.926-5.109 11-19.051 15.859-42.973 25.988-12.723 5.391-16.012 13.824-16.266 20.621l.004.008-.008.547a18.83 18.83 0 0 0 1.965 8.426c.074-8.988 7.047-16.332 15.891-16.988 2.582-.191 5.34-.191 8.184-.191.969 0 1.719.035 2.578-.055 11.379-1.16 15.605-8.422 19.863-12.684 4.266-4.258 9.219-6.031 9.68-6.23.59-.246 1.254-.336 1.93-.336 3.063 0 5.543 2.484 5.543 5.547 0 .375-.035.742-.105 1.094-.121.492-1.07 5.684-4.582 10.582s-9.988 10.246-9.281 21.668c.445 7.238 2.391 10.328-.473 14.793 0 0 7.402-.594 13.207-8.473a.5.5 0 0 1 .406-.207.51.51 0 0 1 .508.504.53.53 0 0 1-.098.301c-7.477 10.512 1.906 20.816 4.016 24.094s3.223 8.543 3.223 8.543 1.121-5.262 3.227-8.543 11.492-13.582 4.016-24.094c-.062-.086-.098-.187-.098-.301 0-.277.227-.504.508-.504a.52.52 0 0 1 .41.207c5.797 7.879 13.199 8.473 13.199 8.473-2.863-4.465-.914-7.555-.465-14.793.699-11.422-5.781-16.77-9.289-21.668s-4.457-10.09-4.578-10.582c-.07-.352-.109-.719-.109-1.094a5.55 5.55 0 0 1 5.547-5.547c.672 0 1.336.09 1.926.336.465.199 5.418 1.973 9.676 6.23 4.27 4.262 8.492 11.523 19.875 12.684.855.09 1.605.055 2.574.055 2.844 0 5.602 0 8.184.191 8.84.656 15.82 8 15.887 16.988a18.73 18.73 0 0 0 1.969-8.426l-.008-.547v-.008c-.246-6.797-3.539-15.23-16.266-20.621-23.918-10.129-37.859-14.988-42.969-25.988-.137-.297-.266-.598-.332-.926a7.91 7.91 0 0 1-.156-1.562c0-4.367 3.539-7.906 7.906-7.906.961 0 1.91.121 2.754.477.656.281 7.715 2.813 13.797 8.883s12.098 16.43 28.332 18.082c1.223.133 2.293.086 3.672.086 4.055 0 7.984-.004 11.668.27 12.605.934 22.555 11.406 22.656 24.223 1.809-3.652 2.805-7.668 2.805-12.02l-.008-.773v-.016c-.363-9.691-5.047-21.719-23.195-29.402-34.109-14.437-58.57-21.371-64.707-37.055-.367-.934-.57-1.973-.602-3.063h19.883a18.94 18.94 0 0 0 16.406-28.422c-3.211-5.57-9.016-9.102-15.391-9.441.098-15.176 4.602-29.352 12.297-41.223l.012-.012c5.316-7.992 12.168-14.359 22.809-16.039.984-.156 2.457-.227 3.492-.227a15.66 15.66 0 0 1 15.66 15.656c0 7.16-4.766 13.68-7.699 19.027-2.723 4.961-4.246 9.188-4.152 16.238h-.008a27.59 27.59 0 0 0 .922 5.883.07.07 0 0 0 .008.027c.453 1.996 1.277 3.961 2.324 5.84a27.32 27.32 0 0 0 2.539 3.918l.016.004c3.977 5.363 9.027 9.563 10.715 11.109 2.684 2.449 5.668 5.941 6.926 9.727.137.395.066.848-.211 1.199a1.26 1.26 0 0 1-.91.457l.019-.004c-.883.027-1.773.168-2.664.422a11.14 11.14 0 0 0-7.656 13.766 12.68 12.68 0 0 0 .219.684.11.11 0 0 0 .019.043 7.16 7.16 0 0 0 .211.547c.012.027.023.051.035.078.074.18.156.355.242.531.008.016.012.031.019.043 2.348 4.707 7.781 7.23 13.02 5.734 1.676-.477 3.152-1.312 4.367-2.402.027-.019.047-.047.074-.066l.316-.301c.09-.086.176-.176.262-.266.035-.035.07-.078.109-.109.012-.023.039-.043.059-.062.031-.035.063-.078.098-.117.121-.137.238-.281.355-.426.648-.801 1.199-1.687 1.59-2.578 0 0 .125-.324.285-.871.199-.574.34-1.168.438-1.77.414-2.109.699-3.254.699-3.254.019-.055.051-.109.09-.16.195-.238.547-.273.789-.078a.56.56 0 0 1 .207.398c.145 2.5.266 3.043.266 3.043s.047 1.398.535 3.059a8.9 8.9 0 0 0 3.387 4.789 10.54 10.54 0 0 0 3.332 1.461c2.137.527 4.691.535 7.949.031 5.711-.883 9.656-.84 9.656-.84s-.84-3.859-1.129-9.633c-.168-3.289-.695-5.797-1.645-7.773-.551-1.148-1.25-2.121-2.102-2.969-1.426-1.32-3.289-2.187-5.383-2.34l.008-.004c-1.727-.145-3.109.094-3.109.094s-.555-.008-3.031.355c-.148.019-.309-.019-.434-.121a.56.56 0 0 1-.078-.789c.039-.047.086-.086.129-.121 0 0 1.063-.508 3.051-1.344.57-.219 1.121-.48 1.641-.785.508-.266.797-.461.797-.461.793-.559 1.547-1.277 2.203-2.078.121-.141.234-.289.344-.434.031-.043.066-.082.098-.121.012-.023.027-.047.047-.07a3.36 3.36 0 0 0 .082-.125l.211-.309c.082-.125.156-.246.23-.371.016-.031.031-.059.055-.086.813-1.414 1.336-3.027 1.465-4.762a11.14 11.14 0 0 0-8.254-11.586c-.016-.008-.031-.012-.047-.012-.187-.051-.379-.094-.57-.137-.027-.004-.059-.012-.086-.016-.191-.039-.383-.07-.578-.098a.23.23 0 0 1-.047-.008 13.66 13.66 0 0 0-.711-.078c-6.137-.449-11.477 4.156-11.93 10.293a11.16 11.16 0 0 0 .125 2.688v-.019c.055.34-.027.699-.262.984a1.24 1.24 0 0 1-1.129.453c-3.961-.461-8.574-2.809-11.391-5.105-.652-.531-2.008-1.711-2.008-1.711l-4.246-3.93.019.004a15.44 15.44 0 0 1-4.625-11.043c0-5.719 3.098-10.715 7.707-13.398 7.695-4.723 15.934-6.805 29.07-9.746 5.816-1.301 11.215-3.477 16.461-5.867 18.301-8.344 31.02-26.793 31.02-48.215 0-29.25-23.711-52.961-52.961-52.961" fill="#c30c26"/></svg>